<?xml version="1.0" encoding="UTF-8"?>
<svg id="Capa_2" data-name="Capa 2" xmlns="http://www.w3.org/2000/svg" viewBox="0 0 143.62 143.62">
  <defs>
    <style>
      .cls-1 {
        fill: #fff;
      }

      .cls-2 {
        fill: #395196;
      }

      .cls-3 {
        fill: #afafaf;
      }
    </style>
  </defs>
  <g id="OBJECTS">
    <g>
      <path class="cls-3" d="m143.62,71.8C143.62,32.15,111.47,0,71.81,0S0,32.15,0,71.8s32.15,71.81,71.81,71.81,71.81-32.16,71.81-71.81Z"/>
      <g>
        <path class="cls-2" d="m143.62,71.8C143.62,32.15,111.47,0,71.81,0S0,32.15,0,71.8s32.15,71.81,71.81,71.81,71.81-32.16,71.81-71.81Z"/>
        <path class="cls-1" d="m78.14,54.8v-6.8c0-3.31,2.21-4.09,3.76-4.09h9.55v-14.57l-13.14-.06c-14.59,0-17.9,10.87-17.9,17.83v7.68h-8.43v17.01h8.51v42.53h17.01v-42.53h12.63l1.55-17.01h-13.52Z"/>
      </g>
    </g>
  </g>
</svg>