<?xml version="1.0" encoding="UTF-8"?>
<svg id="Capa_2" data-name="Capa 2" xmlns="http://www.w3.org/2000/svg" viewBox="0 0 143.62 143.62">
  <defs>
    <style>
      .cls-1 {
        fill: #fff;
      }

      .cls-2 {
        fill: #afafaf;
      }

      .cls-3 {
        fill: #3d83d9;
      }
    </style>
  </defs>
  <g id="OBJECTS">
    <g>
      <path class="cls-2" d="m143.62,71.81C143.62,32.15,111.47,0,71.81,0S0,32.15,0,71.81s32.15,71.81,71.81,71.81,71.81-32.15,71.81-71.81Z"/>
      <g>
        <path class="cls-3" d="m143.62,71.81C143.62,32.15,111.47,0,71.81,0S0,32.15,0,71.81s32.15,71.81,71.81,71.81,71.81-32.15,71.81-71.81Z"/>
        <g>
          <rect class="cls-1" x="37.62" y="54.28" width="16.62" height="47.51"/>
          <path class="cls-1" d="m45.93,30.53c-5.21,0-9.28,4.79-8.11,10.17.68,3.13,3.24,5.65,6.38,6.28,5.36,1.08,10.04-2.98,10.04-8.14,0-4.58-3.71-8.31-8.31-8.31Z"/>
          <path class="cls-1" d="m108.88,68.88c-1.12-8.95-5.6-14.59-17.7-14.59-8.59,0-12.01,1.34-13.98,5.09h0v-5.09h-13.46v47.51h13.85v-24.87c0-6.21,1.18-10.9,8.85-10.9s8.17,5.77,8.17,11.3v24.47h14.26s.26-30.82,0-32.91Z"/>
        </g>
      </g>
    </g>
  </g>
</svg>