<?xml version="1.0" encoding="UTF-8"?>
<svg id="Capa_2" data-name="Capa 2" xmlns="http://www.w3.org/2000/svg" viewBox="0 0 143.62 143.62">
  <defs>
    <style>
      .cls-1 {
        fill: #fff;
      }

      .cls-2 {
        fill: #00b456;
      }

      .cls-3 {
        fill: #afafaf;
      }
    </style>
  </defs>
  <g id="OBJECTS">
    <g>
      <path class="cls-3" d="m143.62,71.81C143.62,32.15,111.47,0,71.81,0S0,32.15,0,71.81s32.15,71.81,71.81,71.81,71.81-32.15,71.81-71.81Z"/>
      <g>
        <path class="cls-2" d="m143.62,71.81C143.62,32.15,111.47,0,71.81,0S0,32.15,0,71.81s32.15,71.81,71.81,71.81,71.81-32.15,71.81-71.81Z"/>
        <path class="cls-1" d="m114.98,65.87c-.58-23.01-19.21-41.03-42.4-41.03s-41.38,17.67-42.37,40.23c-.03.62-.05,1.24-.05,1.86,0,7.49,2,14.81,5.78,21.23.09.15.11.34.05.51l-7.51,22.2c-.1.3.18.59.49.49l23.11-7.35c.16-.05.33-.03.47.04,6.14,3.26,13.05,4.98,20.02,4.98,23.39,0,42.42-18.89,42.42-42.1,0-.31-.02-1.06-.02-1.06Zm-71.03,20.03c-3.8-5.63-5.81-12.15-5.81-18.96,0-1.09.05-2.17.16-3.31,1.71-17.6,16.44-30.86,34.27-30.86s32.95,13.84,34.33,31.5c.08,1.04.12,1.89.12,2.67,0,18.85-15.45,34.18-34.45,34.18-5.07,0-10.02-1.1-14.55-3.21-1.27-.59-3.67-2.02-4.42-2.48-.15-.09-.33-.11-.51-.06l-11.63,3.7c-.27.08-.52-.17-.43-.43l3.76-11.08c.06-.19.03-.4-.08-.56-.23-.32-.6-.84-.77-1.09Z"/>
        <path class="cls-1" d="m92.75,76.3c-.27-.42-2.09-1.3-2.09-1.3-.72-.36-6.03-2.96-7.03-3.32-.85-.31-1.82-.65-2.69.64-.66.98-2.59,3.23-3.22,3.94-.44.5-.84.67-1.82.18-.16-.08-4.89-2.1-8.16-4.99-2.89-2.56-4.9-5.72-5.63-6.96-.45-.76-.16-1.11.4-1.66.34-.33,1.84-2.15,1.96-2.32.24-.36.67-1.24.67-1.24.43-.85.16-1.6-.08-2.08-.17-.34-2.9-6.9-3.16-7.51-.78-1.85-1.61-1.95-2.4-1.9-.39.03-3.99.06-5.14,1.3l-.2.21c-1.13,1.19-3.47,3.67-3.47,8.47,0,1.1.18,2.27.54,3.55.67,2.31,1.98,4.85,3.71,7.16.04.05,2.68,3.71,3.99,5.23,4.17,4.8,8.88,8.35,13.64,10.21,6.07,2.37,8.67,2.92,10.14,2.92.64,0,2-.33,2.29-.36,1.85-.17,6.27-2.46,7.19-5.05.88-2.44.89-4.57.57-5.12Z"/>
      </g>
    </g>
  </g>
</svg>